<svg id="Layer_1_1_" enable-background="new 0 0 64 64" viewBox="0 0 64 64" xmlns="http://www.w3.org/2000/svg"><path d="m61 39v22h-5v-15-7z" fill="#6599ed"/><path d="m45 49v12h-5v-5-7z" fill="#6599ed"/><path d="m29 42v19h-5v-11-8z" fill="#6599ed"/><path d="m51 46h5v15h-5z" fill="#db535b"/><path d="m35 56h5v5h-5z" fill="#db535b"/><path d="m19 50h5v11h-5z" fill="#db535b"/><path d="m13 46v15h-5v-8-7z" fill="#6599ed"/><path d="m3 53h5v8h-5z" fill="#db535b"/><path d="m19.88 15.18 4.91.98c-.38 1.93-1.27 3.68-2.53 5.1-2.01 2.29-4.96 3.74-8.26 3.74-1.39 0-2.72-.26-3.95-.73l1.8-4.67c.67.26 1.39.4 2.15.4 2.91 0 5.34-2.07 5.88-4.82z" fill="#db535b"/><path d="m11.85 19.6-1.8 4.67c-2.8-1.08-5.05-3.27-6.21-6.04l4.62-1.92c.63 1.51 1.86 2.71 3.39 3.29z" fill="#71d2df"/><path d="m8.46 16.31-4.62 1.92c-.54-1.3-.84-2.73-.84-4.23 0-6.08 4.92-11 11-11v5c-3.31 0-6 2.69-6 6 0 .82.16 1.6.46 2.31z" fill="#f6db40"/><path d="m25 14c0 .74-.07 1.46-.21 2.16l-4.91-.98c.08-.38.12-.78.12-1.18 0-3.31-2.69-6-6-6v-5c4.87 0 9 3.16 10.45 7.55.36 1.08.55 2.24.55 3.45z" fill="#6599ed"/><g fill="#1a1a1a"><path d="m62 60v-21c0-.552-.447-1-1-1h-5c-.553 0-1 .448-1 1v6h-4c-.553 0-1 .448-1 1v14h-4v-11c0-.552-.447-1-1-1h-5c-.553 0-1 .448-1 1v6h-4c-.553 0-1 .448-1 1v4h-4v-18c0-.552-.447-1-1-1h-5c-.553 0-1 .448-1 1v7h-4c-.553 0-1 .448-1 1v10h-4v-14c0-.552-.447-1-1-1h-5c-.553 0-1 .448-1 1v6h-4c-.553 0-1 .448-1 1v7h-1v2h62v-2zm-58-6h3v6h-3zm5 6v-7-6h3v13zm11-9h3v9h-3zm5 9v-10-7h3v17zm11-3h3v3h-3zm5 3v-4-6h3v10zm11-13h3v13h-3zm5 13v-14-6h3v20z"/><path d="m17.082 32.215 9.403 5.642c.08.048.167.085.257.109l15 4c.377.1.771-.025 1.021-.32l10.516-12.428 8.314 3.695.812-1.827-9-4c-.406-.182-.883-.072-1.17.268l-10.589 12.517-14.252-3.801-9.879-5.927c-.357-.214-.812-.185-1.14.077l-15 12 1.25 1.562z"/><path d="m9.692 25.204c1.383.528 2.832.796 4.308.796 3.095 0 6.05-1.204 8.267-3.319l3.026 3.026c.188.188.441.293.707.293h12v-2h-11.586l-2.826-2.826c1.075-1.427 1.838-3.067 2.182-4.818.153-.763.23-1.556.23-2.356 0-1.084-.149-2.142-.427-3.159l6.841-6.841h17.586v-2h-18c-.266 0-.52.105-.707.293l-6.49 6.49c-1.981-4.11-6.143-6.783-10.803-6.783-6.617 0-12 5.383-12 12 0 1.598.309 3.15.917 4.616 1.262 3.012 3.731 5.413 6.775 6.588zm-4.495-6.455 2.801-1.164c.628 1.048 1.519 1.92 2.586 2.519l-1.089 2.825c-1.817-.922-3.325-2.389-4.298-4.18zm8.803-9.749c2.757 0 5 2.243 5 5s-2.243 5-5 5-5-2.243-5-5 2.243-5 5-5zm0 15c-.896 0-1.78-.122-2.638-.356l1.088-2.823c.5.114 1.017.179 1.55.179 3.037 0 5.622-1.949 6.589-4.659l2.962.591c-.412 1.347-1.097 2.602-2.043 3.668-1.896 2.161-4.633 3.4-7.508 3.4zm9.501-13.137v.002c.331.995.499 2.05.499 3.135 0 .327-.016.652-.047.974l-2.972-.593c.007-.127.019-.253.019-.381 0-3.519-2.614-6.432-6-6.92v-3.025c3.905.389 7.25 3.023 8.501 6.808zm-10.501-6.812v3.029c-3.386.488-6 3.401-6 6.92 0 .601.084 1.182.228 1.739l-2.801 1.164c-.283-.936-.427-1.909-.427-2.903 0-5.177 3.954-9.446 9-9.949z"/><path d="m40 24h10v2h-10z"/><path d="m40 20h10v2h-10z"/><path d="m40 16h10v2h-10z"/><path d="m52 2h10v2h-10z"/><path d="m52 6h10v2h-10z"/><path d="m52 10h10v2h-10z"/><path d="m52 14h2v2h-2z"/><path d="m56 14h2v2h-2z"/><path d="m60 14h2v2h-2z"/></g></svg>
