<?xml version="1.0" encoding="UTF-8" standalone="no"?>
<svg
   xmlns:dc="http://purl.org/dc/elements/1.1/"
   xmlns:cc="http://creativecommons.org/ns#"
   xmlns:rdf="http://www.w3.org/1999/02/22-rdf-syntax-ns#"
   xmlns:svg="http://www.w3.org/2000/svg"
   xmlns="http://www.w3.org/2000/svg"
   xmlns:sodipodi="http://sodipodi.sourceforge.net/DTD/sodipodi-0.dtd"
   xmlns:inkscape="http://www.inkscape.org/namespaces/inkscape"
   viewBox="1 -47 511.999 511"
   version="1.1"
   id="svg40"
   sodipodi:docname="gallery.svg"
   inkscape:version="0.92.3 (2405546, 2018-03-11)">
  <metadata
     id="metadata46">
    <rdf:RDF>
      <cc:Work
         rdf:about="">
        <dc:format>image/svg+xml</dc:format>
        <dc:type
           rdf:resource="http://purl.org/dc/dcmitype/StillImage" />
      </cc:Work>
    </rdf:RDF>
  </metadata>
  <defs
     id="defs44" />
  <sodipodi:namedview
     pagecolor="#ffffff"
     bordercolor="#666666"
     borderopacity="1"
     objecttolerance="10"
     gridtolerance="10"
     guidetolerance="10"
     inkscape:pageopacity="0"
     inkscape:pageshadow="2"
     inkscape:window-width="1232"
     inkscape:window-height="706"
     id="namedview42"
     showgrid="false"
     inkscape:zoom="0.97970959"
     inkscape:cx="374.96475"
     inkscape:cy="294.30729"
     inkscape:window-x="88"
     inkscape:window-y="50"
     inkscape:window-maximized="0"
     inkscape:current-layer="g28" />
  <path
     d="M 73.775359,40.098029 H 332.44355 V 36.51576 c 0,-15.689504 -13.46631,-28.4116078 -30.08062,-28.4116078 H 59.054251 c -28.168544,0 -51.0033998,21.5678708 -51.0033998,48.1734918 V 217.41141 c 0,15.68951 13.4663058,28.41161 30.0806218,28.41161 h 4.135496 V 69.858186 c 0,-16.438039 14.104714,-29.760157 31.50839,-29.760157 z m 0,0"
     id="path2"
     inkscape:connector-curvature="0"
     style="fill:#ee4e71;stroke-width:0.78243148" />
  <path
     d="M 79.760034,222.09569 V 96.639059 c 0,-13.65183 11.717763,-24.719435 26.171556,-24.719435 h 260.72808 v -3.412958 c 0,-15.689505 -13.46631,-28.408637 -30.08063,-28.408637 H 73.775359 c -17.403676,0 -31.50839,13.322118 -31.50839,29.760157 V 249.40232 c 0,15.69247 13.466306,28.41161 30.080621,28.41161 h 7.412444 z m 0,0"
     id="path4"
     inkscape:connector-curvature="0"
     style="fill:#ffd866;stroke-width:0.78243148" />
  <g
     id="g28"
     transform="matrix(0.80508512,0,0,0.76041522,0,0.11979239)"
     style="fill:#d6effb">
    <path
       d="m 102.99219,390.02344 c -0.5,-0.92188 -0.95703,-1.86719 -1.36719,-2.83985 0.41016,0.97266 0.86719,1.91797 1.36719,2.83985 z m 0,0"
       id="path6"
       inkscape:connector-curvature="0" />
    <path
       d="m 120.40234,405.06641 c -0.99609,-0.36719 -1.96875,-0.77735 -2.91796,-1.23438 0.94921,0.45703 1.92187,0.86719 2.91796,1.23438 z m 0,0"
       id="path8"
       inkscape:connector-curvature="0" />
    <path
       d="m 123.45313,406.01172 c -1.03907,-0.26563 -2.05469,-0.58203 -3.05079,-0.94531 0.9961,0.36328 2.01172,0.67968 3.05079,0.94531 z m 0,0"
       id="path10"
       inkscape:connector-curvature="0" />
    <path
       d="m 499.44531,387.18359 c -0.41015,0.97266 -0.87109,1.91797 -1.37109,2.83985 0.5039,-0.92188 0.96094,-1.86719 1.37109,-2.83985 z m 0,0"
       id="path12"
       inkscape:connector-curvature="0" />
    <path
       d="m 502,374.52734 c 0,1.6836 -0.12891,3.33594 -0.375,4.95313 0.24609,-1.61719 0.375,-3.26953 0.375,-4.95313 z m 0,0"
       id="path14"
       inkscape:connector-curvature="0" />
    <path
       d="m 501.33984,381.08203 c -0.21875,1.05469 -0.48437,2.09766 -0.80078,3.11328 0.31641,-1.01953 0.58203,-2.05859 0.80078,-3.11328 z m 0,0"
       id="path16"
       inkscape:connector-curvature="0" />
    <path
       d="m 131.57812,407.03906 c -2.80468,0 -5.52734,-0.35547 -8.12499,-1.02344 2.59765,0.66797 5.32031,1.02344 8.12499,1.02344 z m 0,0"
       id="path18"
       inkscape:connector-curvature="0" />
    <path
       d="m 99.070312,374.52734 c 0,1.6836 0.128907,3.33594 0.375,4.95313 -0.25,-1.61719 -0.375,-3.26953 -0.375,-4.95313 z m 0,0"
       id="path20"
       inkscape:connector-curvature="0" />
    <path
       d="m 100.53125,384.19531 c -0.31641,-1.01953 -0.585938,-2.05859 -0.800781,-3.11328 0.214843,1.05469 0.484371,2.09375 0.800781,3.11328 z m 0,0"
       id="path22"
       inkscape:connector-curvature="0" />
    <path
       d="m 116.08203,403.11328 c -0.92187,-0.5 -1.8164,-1.04297 -2.67969,-1.62891 0.86329,0.58594 1.75782,1.12891 2.67969,1.62891 z m 0,0"
       id="path24"
       inkscape:connector-curvature="0" />
    <path
       d="M 469.49219,94.421875 H 131.57812 c -17.95312,0 -32.507808,14.554685 -32.507808,32.507815 V 291.91406 L 208.84766,195.0625 c 9.43359,-8.32422 23.74609,-7.76563 32.50781,1.26562 l 110.98437,114.42579 62.05078,-45.20704 c 8.39063,-6.11718 19.79688,-6.01562 28.08204,0.24219 L 502,310.75391 V 126.92969 C 502,108.97656 487.44531,94.421875 469.49219,94.421875 Z M 388.51562,220.70703 c -18.11328,0 -32.79687,-14.68359 -32.79687,-32.79297 0,-18.11328 14.68359,-32.79687 32.79687,-32.79687 18.10938,0 32.79297,14.68359 32.79297,32.79687 0,18.10938 -14.68359,32.79297 -32.79297,32.79297 z m 0,0"
       id="path26"
       inkscape:connector-curvature="0" />
  </g>
  <path
     d="m 356.22815,202.22984 c -6.67025,-4.75853 -15.85326,-4.83576 -22.60842,-0.18416 l -49.95616,34.37611 -89.35187,-87.0111 c -7.05393,-6.8675 -18.57357,-7.29227 -26.17156,-0.9624 l -88.380106,73.6474 v 62.8204 c 0,1.28023 0.103781,2.53966 0.301907,3.76643 0.06604,0.40694 0.141519,0.81388 0.229576,1.21785 0.176112,0.802 0.389963,1.59509 0.644697,2.36739 0.254733,0.77526 0.550351,1.53271 0.880561,2.27233 0.330211,0.73962 0.698161,1.45845 1.100703,2.15946 2.015858,3.50207 4.899697,6.4962 8.381062,8.71507 0.698159,0.44556 1.415188,0.85844 2.157376,1.23865 0.371094,0.1901 0.748478,0.37129 1.129006,0.54655 0.764202,0.34753 1.547273,0.65942 2.349214,0.93863 0.80194,0.27625 1.619604,0.51685 2.456138,0.71883 2.091336,0.50794 4.283306,0.77824 6.541316,0.77824 h 272.04958 c 9.93777,0 18.57986,-5.23082 23.01412,-12.93597 0.40254,-0.70101 0.77049,-1.41984 1.1007,-2.16243 0.33021,-0.73962 0.62583,-1.49707 0.88056,-2.26936 0.25474,-0.77527 0.47173,-1.56539 0.6447,-2.37036 0.0881,-0.401 0.16353,-0.80794 0.22957,-1.21785 0.19813,-1.22677 0.30191,-2.48323 0.30191,-3.76346 v -48.49727 z m 0,0"
     id="path30"
     inkscape:connector-curvature="0"
     style="fill:#00b7ec;stroke-width:0.78243148" />
  <path
     d="m 339.18928,143.00954 c 0,13.77361 -11.82154,24.93924 -26.40113,24.93924 -14.58273,0 -26.40428,-11.16563 -26.40428,-24.93924 0,-13.77065 11.82155,-24.93628 26.40428,-24.93628 14.57959,0 26.40113,11.16563 26.40113,24.93628 z m 0,0"
     id="path32"
     inkscape:connector-curvature="0"
     style="fill:#ffd866;stroke-width:0.78243148" />
  <path
     d="M 377.97803,64.312501 H 374.4432 C 372.37388,47.565544 358.10564,34.287981 340.27426,32.663188 338.22695,14.609267 322.01203,0.5 302.36607,0.5 H 59.054251 C 26.492332,0.5 0,25.522413 0,56.274674 V 217.40844 c 0,18.68661 15.139375,34.08799 34.436258,35.84942 2.025292,17.86085 17.922578,31.8513 37.285505,32.14537 0.05032,3.16938 0.57551,6.22887 1.528404,9.11607 4.336767,13.14984 17.350213,22.72334 32.681423,22.72334 h 272.04644 c 18.87233,0 34.22555,-14.50135 34.22555,-32.32358 V 96.639059 c 0,-17.825202 -15.35322,-32.326558 -34.22555,-32.326558 z m 18.12385,32.326558 V 221.14814 l -35.0212,-24.98677 c -9.56982,-6.82591 -22.51094,-6.93285 -32.20341,-0.26436 l -44.30169,30.4879 -84.48362,-82.26743 c -10.06357,-9.80222 -26.43887,-10.40521 -37.27922,-1.36934 l -75.001855,62.4996 V 96.639059 c 0,-9.439842 8.129474,-17.118253 18.120705,-17.118253 h 272.04644 c 9.99438,0 18.12385,7.678411 18.12385,17.118253 z m 0,188.277031 c 0,9.43984 -8.12947,17.11825 -18.12071,17.11825 H 105.93159 c -8.116893,0 -15.007289,-5.07043 -17.303039,-12.03298 -0.531483,-1.60697 -0.817666,-3.31493 -0.817666,-5.0823 V 225.52647 L 173.46754,154.1514 c 4.38079,-3.65356 10.99759,-3.40999 15.06704,0.55249 l 38.12833,37.12965 c 0,0.003 0,0.003 0.003,0.003 l 75.8887,73.89988 c 1.57872,1.53866 3.67635,2.31095 5.78026,2.31095 2.019,0 4.04115,-0.71289 5.60415,-2.1446 3.18889,-2.92582 3.26751,-7.73782 0.17297,-10.75275 l -18.21505,-17.73906 42.46195,-29.21955 c 3.9185,-2.6971 9.1484,-2.65551 13.01659,0.10396 l 44.72625,31.91071 z M 50.31782,249.39935 V 69.858186 c 0,-0.763386 0.04088,-1.520831 0.12265,-2.263424 C 51.641807,56.435075 61.651909,47.69921 73.778504,47.69921 h 98.478266 c 4.44683,0 8.05085,-3.404046 8.05085,-7.604152 0,-4.200106 -3.60402,-7.604152 -8.05085,-7.604152 H 73.778504 c -21.81592,0 -39.562386,16.761809 -39.562386,37.36728 V 237.89213 C 23.929268,236.14258 16.101702,227.62355 16.101702,217.40844 V 56.274674 c 0,-22.3669 19.268581,-40.56637 42.952549,-40.56637 H 302.36607 c 10.68625,0 19.62081,7.226915 21.6115,16.782602 h -87.31399 c -4.44684,0 -8.05085,3.404046 -8.05085,7.604152 0,4.200106 3.60401,7.604152 8.05085,7.604152 h 95.77997 0.009 4.12921 c 10.62335,0 19.51702,7.143745 21.57691,16.613291 H 105.93159 c -18.869182,0 -34.222407,14.501356 -34.222407,32.326558 v 125.450691 0.006 48.09923 C 59.856192,269.87709 50.31782,260.67191 50.31782,249.39935 Z m 0,0"
     id="path34"
     inkscape:connector-curvature="0"
     style="stroke-width:0.78243148" />
  <path
     d="m 312.78815,110.46911 c -19.00127,0 -34.45513,14.59938 -34.45513,32.54043 0,17.94401 15.45701,32.54339 34.45513,32.54339 18.99498,0 34.45198,-14.59938 34.45198,-32.54339 0,-17.94105 -15.457,-32.54043 -34.45198,-32.54043 z m 0,49.87552 c -10.12017,0 -18.35343,-7.77644 -18.35343,-17.33212 0,-9.55866 8.23326,-17.33509 18.35343,-17.33509 10.11703,0 18.35028,7.77643 18.35028,17.33509 0,9.55568 -8.23325,17.33212 -18.35028,17.33212 z m 0,0"
     id="path36"
     inkscape:connector-curvature="0"
     style="stroke-width:0.78243148" />
  <path
     d="m 197.02886,43.006023 c 0.20127,0.457437 0.44971,0.897052 0.73904,1.309934 0.29247,0.415852 0.62898,0.804971 1.00007,1.155475 0.37109,0.347533 0.77992,0.668333 1.22335,0.950519 0.43399,0.273274 0.90887,0.507933 1.39318,0.698037 0.48116,0.190104 0.99063,0.335652 1.50639,0.433674 0.51261,0.09802 1.04409,0.145548 1.56928,0.145548 0.53148,0 1.05353,-0.04753 1.57872,-0.145548 0.51262,-0.09802 1.01265,-0.24357 1.50325,-0.433674 0.48431,-0.190104 0.94975,-0.424763 1.38688,-0.698037 0.44028,-0.282186 0.85226,-0.602986 1.22336,-0.950519 0.37738,-0.350504 0.70759,-0.739623 1.00635,-1.155475 0.28933,-0.412882 0.53777,-0.852497 0.73904,-1.309934 0.20128,-0.463379 0.35537,-0.941608 0.45915,-1.419838 0.10379,-0.496052 0.1541,-0.998045 0.1541,-1.491127 0,-0.496052 -0.0503,-0.998045 -0.1541,-1.482215 -0.10378,-0.487141 -0.25787,-0.968342 -0.45915,-1.422808 -0.20127,-0.463379 -0.44971,-0.905964 -0.73904,-1.315875 -0.29876,-0.418823 -0.62897,-0.804971 -1.00635,-1.155475 -0.3711,-0.350504 -0.78308,-0.668333 -1.22336,-0.944579 -0.43713,-0.273273 -0.90257,-0.507933 -1.38688,-0.698036 -0.4906,-0.190104 -0.99063,-0.335652 -1.50325,-0.433675 -1.04095,-0.199015 -2.1102,-0.199015 -3.148,0 -0.51576,0.09802 -1.02523,0.243571 -1.50639,0.433675 -0.48431,0.190103 -0.95919,0.424763 -1.39318,0.698036 -0.44343,0.276246 -0.85226,0.594075 -1.22335,0.944579 -0.37109,0.350504 -0.7076,0.736652 -1.00007,1.155475 -0.28933,0.409911 -0.53777,0.852496 -0.73904,1.315875 -0.20127,0.454466 -0.35537,0.935667 -0.45915,1.422808 -0.10378,0.48417 -0.16039,0.986163 -0.16039,1.482215 0,0.493082 0.0566,0.995075 0.16039,1.491127 0.10378,0.47823 0.25788,0.956459 0.45915,1.419838 z m 0,0"
     id="path38"
     inkscape:connector-curvature="0"
     style="stroke-width:0.78243148" />
  <g
     transform="matrix(0.55231463,0,0,0.50994209,576.62284,63.852748)"
     id="g6">
    <path
       inkscape:connector-curvature="0"
       style="fill:#000000;stroke-width:0.95680803"
       d="m -125.18087,341.59104 v 21.9845 c 0,8.7776 -6.18711,16.3733 -14.37949,17.6684 -3.69123,0.5743 -7.46717,1.1496 -11.2757,1.6786 -1.92055,6.75 -4.49091,13.2855 -7.6487,19.4946 2.32552,3.2117 4.62963,6.445 6.84901,9.6115 4.92846,7.0431 4.21349,17.0264 -1.65337,23.2354 l -14.72115,15.5394 c -5.86686,6.2091 -15.32906,6.9634 -21.99654,1.7465 -3.00791,-2.3434 -6.05957,-4.7783 -9.09913,-7.223 -5.87803,3.3357 -12.06514,6.0508 -18.44403,8.0677 -0.51203,4.0338 -1.04546,8.0234 -1.60031,11.9107 -1.22699,8.6656 -8.41674,15.1893 -16.71618,15.1893 h -20.81237 c -8.30968,0 -15.50036,-6.5247 -16.72643,-15.1893 -0.54367,-3.8873 -1.08828,-7.8877 -1.58913,-11.9107 -6.39006,-2.0169 -12.57717,-4.733 -18.4552,-8.0677 -3.04049,2.4457 -6.09122,4.8796 -9.09913,7.223 -6.66748,5.2169 -16.11851,4.4626 -21.99654,-1.7465 l -14.71091,-15.5394 c -5.87804,-6.209 -6.59301,-16.1923 -1.66455,-23.2354 2.22963,-3.1665 4.5235,-6.4007 6.84902,-9.6115 -3.15779,-6.2091 -5.71791,-12.7446 -7.63753,-19.4946 -3.81877,-0.53 -7.59564,-1.1043 -11.2757,-1.6786 -8.20355,-1.2961 -14.37949,-8.8908 -14.37949,-17.6684 v -21.9845 c 0,-8.7669 6.17687,-16.3615 14.37949,-17.6576 3.68006,-0.5861 7.46717,-1.1496 11.2757,-1.6904 1.92055,-6.7382 4.48067,-13.2737 7.63753,-19.4828 -2.32552,-3.2225 -4.61939,-6.4451 -6.83784,-9.6116 -4.93871,-7.0429 -4.22467,-17.038 1.65337,-23.2353 l 14.71091,-15.5502 c 5.87803,-6.1973 15.32906,-6.9525 21.99654,-1.7465 3.00791,2.3552 6.05957,4.7782 9.09913,7.2347 5.87803,-3.3356 12.06514,-6.0507 18.4552,-8.0794 0.50178,-4.0231 1.04546,-8.0117 1.58913,-11.9108 1.22514,-8.6547 8.41488,-15.19026 16.7255,-15.19026 h 20.81237 c 8.29944,0 15.48919,6.53556 16.71618,15.18936 0.55485,3.8991 1.08828,7.8877 1.60031,11.9107 6.37889,2.0287 12.566,4.7438 18.44403,8.0794 3.04049,-2.4564 6.09122,-4.8795 9.1103,-7.2347 6.65631,-5.206 16.11851,-4.4508 21.9863,1.7465 l 14.72115,15.5502 c 5.86686,6.1973 6.58183,16.1924 1.65337,23.2235 -2.21845,3.1773 -4.52349,6.4009 -6.84901,9.6234 3.15779,6.2091 5.72815,12.7446 7.6487,19.4828 3.80853,0.5408 7.58447,1.1043 11.2757,1.6904 8.19238,1.2971 14.37949,8.8917 14.37949,17.6586 z m -20.2687,18.9311 v -15.8659 c -3.34956,-0.5074 -6.76337,-1.0031 -10.18741,-1.4761 -6.76337,-0.9352 -12.30998,-6.0173 -14.11324,-12.9363 -1.72784,-6.6261 -4.2349,-13.0151 -7.45693,-19.0098 -3.3598,-6.2425 -2.83754,-13.9729 1.32289,-19.6971 2.10116,-2.8843 4.18184,-5.7804 6.20852,-8.6538 l -10.61379,-11.2115 c -2.73048,2.1526 -5.47214,4.3495 -8.19238,6.5581 -5.41908,4.3948 -12.73729,4.9465 -18.64698,1.3974 -5.67508,-3.4035 -11.72348,-6.0507 -17.99624,-7.8769 -6.56042,-1.9048 -11.36135,-7.7638 -12.24668,-14.9188 -0.44779,-3.6061 -0.91699,-7.2122 -1.39736,-10.7504 h -15.01999 c -0.48037,3.5382 -0.94957,7.1443 -1.39736,10.7612 -0.88533,7.1442 -5.68626,13.0032 -12.24668,14.908 -6.27275,1.8252 -12.32115,4.4734 -17.98506,7.8769 -5.92086,3.55 -13.23815,2.9974 -18.65722,-1.3974 -2.72024,-2.2086 -5.4619,-4.4055 -8.19238,-6.5581 l -10.61379,11.2115 c 2.02668,2.8734 4.10736,5.7695 6.20852,8.6538 4.17067,5.7242 4.68269,13.4546 1.32288,19.6971 -3.22202,5.9947 -5.72814,12.3837 -7.45692,19.0098 -1.80326,6.919 -7.33963,12.0011 -14.11324,12.9363 -3.42404,0.473 -6.83785,0.9687 -10.17717,1.4761 v 15.8659 c 3.33932,0.5074 6.75219,1.003 10.17717,1.476 6.77361,0.9352 12.30998,6.0065 14.11324,12.9364 1.72785,6.626 4.2349,13.0151 7.45692,18.998 3.35981,6.2543 2.84872,13.9837 -1.31171,19.6971 -2.11233,2.8843 -4.19207,5.7921 -6.21876,8.6537 l 10.61379,11.2234 c 2.73048,-2.1526 5.47214,-4.3495 8.20355,-6.5581 5.40883,-4.4056 12.72612,-4.9465 18.64698,-1.3975 5.66484,3.4036 11.72348,6.0508 17.98507,7.8769 6.56042,1.9048 11.36134,7.7638 12.24668,14.9081 0.44778,3.6169 0.91698,7.223 1.39736,10.7503 h 15.01998 c 0.48038,-3.5273 0.94957,-7.1325 1.39736,-10.7503 0.88533,-7.1443 5.68533,-13.0033 12.24668,-14.9081 6.27276,-1.8252 12.32116,-4.4733 17.98507,-7.8769 5.92086,-3.549 13.23814,-3.0081 18.65722,1.3975 2.72024,2.2086 5.47214,4.4055 8.19238,6.5581 l 10.61379,-11.2234 c -2.02668,-2.8626 -4.10736,-5.7694 -6.20852,-8.6537 -4.16043,-5.7134 -4.68269,-13.4428 -1.32289,-19.6971 3.22203,-5.9839 5.72816,-12.3729 7.45694,-18.998 1.80325,-6.9299 7.34986,-12.0012 14.11323,-12.9364 3.42311,-0.473 6.83692,-0.9696 10.18648,-1.476 z"
       id="path2-1" />
    <path
       inkscape:connector-curvature="0"
       style="fill:#000000;stroke-width:0.95680803"
       d="m -145.44957,344.65624 v 15.8659 c -3.34956,0.5074 -6.76337,1.003 -10.18741,1.476 -6.76337,0.9352 -12.30998,6.0065 -14.11324,12.9364 -1.72784,6.626 -4.2349,13.0151 -7.45693,18.998 -3.3598,6.2543 -2.83754,13.9837 1.32289,19.6971 2.10116,2.8843 4.18184,5.7921 6.20852,8.6537 l -10.61379,11.2234 c -2.72024,-2.1526 -5.47214,-4.3495 -8.19238,-6.5581 -5.41908,-4.4056 -12.73729,-4.9465 -18.65722,-1.3975 -5.66484,3.4036 -11.71324,6.0508 -17.98507,7.8769 -6.56042,1.9048 -11.36135,7.7638 -12.24668,14.9081 -0.44779,3.6169 -0.91699,7.223 -1.39736,10.7503 h -15.01998 c -0.48038,-3.5273 -0.94958,-7.1325 -1.39736,-10.7503 -0.88534,-7.1443 -5.68626,-13.0033 -12.24668,-14.9081 -6.26159,-1.8252 -12.32116,-4.4733 -17.98507,-7.8769 -5.92086,-3.549 -13.23815,-3.0081 -18.64698,1.3975 -2.73048,2.2086 -5.47214,4.4055 -8.20355,6.5581 l -10.61379,-11.2234 c 2.02668,-2.8626 4.10736,-5.7694 6.21876,-8.6537 4.16043,-5.7134 4.67245,-13.4428 1.31171,-19.6971 -3.22202,-5.9839 -5.72814,-12.3729 -7.45692,-18.998 -1.80326,-6.9299 -7.33964,-12.0012 -14.11324,-12.9364 -3.42405,-0.473 -6.83785,-0.9686 -10.17717,-1.476 v -15.8659 c 3.33932,-0.5074 6.75219,-1.0031 10.17717,-1.4761 6.7736,-0.9352 12.30998,-6.0173 14.11324,-12.9363 1.72784,-6.6261 4.2349,-13.0151 7.45692,-19.0098 3.35981,-6.2425 2.84872,-13.9729 -1.32288,-19.6971 -2.10116,-2.8843 -4.18184,-5.7804 -6.20852,-8.6538 l 10.61379,-11.2115 c 2.73048,2.1526 5.47214,4.3495 8.19238,6.5581 5.41907,4.3948 12.73729,4.9465 18.65722,1.3974 5.66484,-3.4035 11.71324,-6.0507 17.98506,-7.8769 6.56042,-1.9048 11.36135,-7.7638 12.24668,-14.908 0.44779,-3.6169 0.91699,-7.223 1.39736,-10.7612 h 15.01999 c 0.48037,3.5382 0.94957,7.1443 1.39736,10.7504 0.88533,7.155 5.68626,13.015 12.24668,14.9188 6.27275,1.8252 12.32116,4.4734 17.99624,7.8769 5.90969,3.55 13.2279,2.9974 18.64698,-1.3974 2.72024,-2.2086 5.4619,-4.4055 8.19238,-6.5581 l 10.61379,11.2115 c -2.02668,2.8734 -4.10736,5.7695 -6.20852,8.6538 -4.16043,5.7242 -4.68269,13.4546 -1.32289,19.6971 3.22203,5.9947 5.72815,12.3837 7.45693,19.0098 1.80325,6.919 7.34987,12.0011 14.11324,12.9363 3.42497,0.473 6.83878,0.9687 10.18834,1.4761 z m -57.63713,7.9329 c 0,-25.1617 -19.37218,-45.6249 -43.19246,-45.6249 -23.82028,0 -43.19247,20.4632 -43.19247,45.6249 0,25.1618 19.37219,45.625 43.19247,45.625 23.82028,0 43.19246,-20.4632 43.19246,-45.625 z"
       id="path4-2" />
    <g
       transform="matrix(0.9309524,0,0,0.98338171,-601.8276,224.67088)"
       id="g10"
       style="fill:#000000">
      <path
         inkscape:connector-curvature="0"
         style="fill:#000000"
         d="m 381.919,83.683 c 25.587,0 46.396,20.809 46.396,46.396 0,25.587 -20.809,46.396 -46.396,46.396 -25.587,0 -46.396,-20.809 -46.396,-46.396 0,-25.587 20.808,-46.396 46.396,-46.396 z m 25.771,46.397 c 0,-14.209 -11.562,-25.771 -25.771,-25.771 -14.209,0 -25.771,11.562 -25.771,25.771 0,14.209 11.562,25.771 25.771,25.771 14.209,-0.001 25.771,-11.562 25.771,-25.771 z"
         id="path6-7" />
      <path
         inkscape:connector-curvature="0"
         style="fill:#000000"
         d="m 337.585,289.471 c 4.033,9.74 0.275,21.176 -8.743,26.596 -5.363,3.22 -10.886,6.474 -16.432,9.671 1.295,11.046 1.295,22.253 0,33.322 5.523,3.186 11.046,6.44 16.432,9.671 9.018,5.42 12.777,16.856 8.743,26.596 l -11.768,28.418 c -4.045,9.751 -14.782,15.183 -25.003,12.639 -6.073,-1.513 -12.272,-3.128 -18.46,-4.778 -6.898,8.743 -14.816,16.661 -23.548,23.559 1.662,6.222 3.277,12.421 4.778,18.449 2.544,10.221 -2.888,20.958 -12.628,24.992 l -28.418,11.78 c -9.751,4.033 -21.187,0.275 -26.607,-8.743 -3.243,-5.397 -6.497,-10.92 -9.671,-16.432 -11.058,1.295 -22.253,1.295 -33.322,0 -3.208,5.569 -6.463,11.104 -9.671,16.432 -3.953,6.577 -11.104,10.359 -18.46,10.359 -2.739,0 -5.5,-0.527 -8.136,-1.616 l -28.429,-11.78 c -9.74,-4.033 -15.171,-14.77 -12.628,-24.992 1.513,-6.062 3.117,-12.272 4.778,-18.46 -8.743,-6.898 -16.661,-14.816 -23.559,-23.548 -6.188,1.662 -12.387,3.266 -18.449,4.778 -10.221,2.544 -20.958,-2.888 -24.992,-12.628 L 1.612,395.338 c -4.033,-9.751 -0.275,-21.187 8.743,-26.607 5.363,-3.231 10.886,-6.474 16.432,-9.671 -1.295,-11.058 -1.295,-22.253 0,-33.322 -5.535,-3.186 -11.058,-6.44 -16.432,-9.671 -9.018,-5.42 -12.777,-16.856 -8.743,-26.596 L 13.38,261.053 c 4.045,-9.751 14.782,-15.183 24.992,-12.639 6.062,1.513 12.272,3.117 18.472,4.778 6.898,-8.743 14.816,-16.661 23.548,-23.559 -1.65,-6.165 -3.254,-12.364 -4.778,-18.449 -2.544,-10.221 2.888,-20.958 12.628,-24.992 l 28.418,-11.78 c 9.751,-4.033 21.187,-0.275 26.607,8.743 3.22,5.351 6.474,10.874 9.671,16.432 11.058,-1.295 22.253,-1.295 33.322,0 3.186,-5.535 6.44,-11.058 9.671,-16.432 5.42,-9.018 16.856,-12.777 26.607,-8.743 l 28.418,11.78 c 9.74,4.033 15.171,14.77 12.628,24.992 -1.513,6.073 -3.128,12.272 -4.778,18.46 8.743,6.898 16.661,14.816 23.559,23.548 6.176,-1.662 12.387,-3.266 18.449,-4.778 10.221,-2.544 20.958,2.888 24.992,12.628 l 11.78,28.418 c -0.001,0.011 -0.001,0.011 -0.001,0.011 z m -21.657,7.62 -10.817,-26.126 c -5.821,1.467 -11.768,3.002 -17.692,4.606 -8.376,2.246 -17.211,-0.688 -22.505,-7.505 -6.096,-7.815 -13.143,-14.862 -20.981,-20.958 -6.807,-5.305 -9.763,-14.152 -7.505,-22.516 1.593,-5.924 3.14,-11.871 4.606,-17.704 l -26.126,-10.817 c -3.094,5.156 -6.211,10.462 -9.259,15.767 -4.331,7.517 -12.65,11.688 -21.233,10.611 -9.855,-1.226 -19.824,-1.226 -29.655,0 -8.548,1.066 -16.89,-3.105 -21.21,-10.622 -3.071,-5.317 -6.176,-10.611 -9.259,-15.756 l -26.126,10.817 c 1.467,5.844 3.014,11.791 4.606,17.692 2.246,8.376 -0.688,17.211 -7.494,22.505 -7.826,6.096 -14.873,13.143 -20.97,20.981 -5.305,6.806 -14.152,9.763 -22.516,7.505 -5.936,-1.604 -11.883,-3.151 -17.704,-4.606 l -10.817,26.126 c 5.168,3.094 10.462,6.211 15.767,9.259 7.517,4.331 11.688,12.662 10.611,21.233 -1.226,9.843 -1.226,19.824 0,29.655 1.066,8.56 -3.105,16.89 -10.622,21.21 -5.305,3.06 -10.599,6.165 -15.756,9.259 l 10.817,26.126 c 5.821,-1.455 11.768,-3.002 17.692,-4.606 8.376,-2.246 17.211,0.688 22.505,7.505 6.096,7.815 13.143,14.862 20.981,20.958 6.807,5.305 9.751,14.152 7.505,22.516 -1.604,5.936 -3.151,11.883 -4.606,17.704 l 26.126,10.817 c 3.071,-5.122 6.176,-10.427 9.259,-15.767 4.331,-7.517 12.65,-11.676 21.233,-10.611 9.843,1.226 19.824,1.226 29.655,0 8.56,-1.054 16.89,3.105 21.21,10.622 3.048,5.282 6.153,10.576 9.259,15.756 l 26.126,-10.817 c -1.455,-5.798 -3.002,-11.734 -4.606,-17.692 -2.246,-8.376 0.688,-17.211 7.494,-22.505 7.815,-6.096 14.873,-13.143 20.97,-20.981 5.305,-6.807 14.14,-9.751 22.516,-7.505 5.924,1.593 11.871,3.14 17.704,4.606 l 10.817,-26.126 c -5.168,-3.094 -10.473,-6.211 -15.767,-9.259 -7.517,-4.331 -11.676,-12.662 -10.611,-21.233 1.226,-9.843 1.226,-19.824 0,-29.655 -1.066,-8.56 3.105,-16.89 10.622,-21.21 5.305,-3.06 10.611,-6.177 15.756,-9.259 z"
         id="path8-0" />
    </g>
    <path
       inkscape:connector-curvature="0"
       style="fill:#000000;stroke-width:0.95680803"
       d="m -317.78375,491.13284 10.07011,25.6919 c -4.78975,3.0307 -9.72845,6.096 -14.66809,9.1052 -6.99797,4.2481 -10.88097,12.4397 -9.88857,20.8575 1.14134,9.6686 1.14134,19.4827 0,29.1621 -0.9924,8.4286 2.88036,16.6212 9.87833,20.8802 4.92846,2.9973 9.86716,6.0625 14.67833,9.1051 l -10.07011,25.6918 c -5.43025,-1.4426 -10.96662,-2.9639 -16.48159,-4.5294 -7.79766,-2.2087 -16.02262,0.6874 -20.96132,7.3803 -5.67509,7.7077 -12.24668,14.6376 -19.52208,20.6323 -6.33699,5.206 -9.06747,13.8942 -6.97656,22.131 1.49326,5.86 2.93344,11.6963 4.28797,17.398 l -24.32206,10.6372 c -2.89061,-5.0929 -5.78214,-10.2989 -8.61969,-15.4941 -4.02171,-7.3921 -11.77655,-11.482 -19.7455,-10.4455 -9.15312,1.2056 -18.44402,1.2056 -27.60739,0 -7.99036,-1.0483 -15.73496,3.0426 -19.76692,10.4347 -2.86919,5.2512 -5.76073,10.4681 -8.61968,15.5049 l -24.32113,-10.6372 c 1.35453,-5.7243 2.79472,-11.5725 4.28796,-17.4098 2.09092,-8.226 -0.65073,-16.925 -6.98679,-22.1418 -7.29681,-5.9947 -13.85723,-12.9246 -19.53232,-20.6097 -4.92846,-6.7048 -13.15342,-9.589 -20.95108,-7.3803 -5.51497,1.5774 -11.05134,3.0986 -16.47041,4.5294 l -10.07009,-25.6918 c 4.79997,-3.0426 9.72843,-6.096 14.66806,-9.1051 6.99797,-4.2482 10.88097,-12.4398 9.88858,-20.8575 -1.14135,-9.6687 -1.14135,-19.4828 0,-29.1622 1.00263,-8.4286 -2.88037,-16.6211 -9.87834,-20.8801 -4.9387,-2.9974 -9.86718,-6.0626 -14.6783,-9.1052 l 10.07009,-25.6919 c 5.41907,1.4309 10.95544,2.9522 16.48158,4.5295 7.78742,2.2195 16.02262,-0.6874 20.96132,-7.3803 5.67509,-7.7077 12.23551,-14.6376 19.52207,-20.6323 6.33607,-5.206 9.06748,-13.8942 6.97656,-22.131 -1.483,-5.8029 -2.92319,-11.6511 -4.28796,-17.398 l 24.32206,-10.6372 c 2.86919,5.0595 5.76073,10.2655 8.61969,15.4942 4.02172,7.392 11.78771,11.4937 19.7455,10.4454 9.15312,-1.2056 18.43378,-1.2056 27.60739,0 7.99037,1.0591 15.73496,-3.0425 19.76691,-10.4346 2.83755,-5.2169 5.73933,-10.4347 8.61969,-15.505 l 24.32207,10.6372 c -1.36571,5.7351 -2.8059,11.5843 -4.28797,17.4098 -2.10116,8.226 0.65074,16.925 6.9868,22.1418 7.2968,5.9947 13.85722,12.9246 19.53231,20.6097 4.92846,6.7047 13.15343,9.589 20.95109,7.3803 5.51402,-1.5773 11.0504,-3.0868 16.46948,-4.5295 z m -53.44506,70.1565 c 0,-9.7807 -1.78184,-19.7198 -5.53636,-29.2979 -15.34024,-39.1347 -57.95645,-57.7835 -94.99439,-41.5685 -37.04818,16.2041 -54.70276,61.2204 -39.35229,100.3442 7.42434,18.9645 21.41004,33.7261 39.35229,41.5686 8.97158,3.9325 18.39096,5.8934 27.82058,5.8934 9.42962,0 18.84992,-1.9609 27.82058,-5.8934 27.9714,-12.2363 44.88959,-40.9028 44.88959,-71.0464 z"
       id="path12-9" />
    <path
       inkscape:connector-curvature="0"
       style="fill:#000000;stroke-width:0.95680803"
       d="m -376.76517,531.99244 c 3.75452,9.5781 5.53636,19.5171 5.53636,29.2979 0,30.1426 -16.91912,58.8091 -44.88866,71.0464 -8.97159,3.9325 -18.39096,5.8933 -27.82058,5.8933 -9.42961,0 -18.84993,-1.9608 -27.82058,-5.8933 -17.94318,-7.8425 -31.92795,-22.6041 -39.35229,-41.5686 -15.35047,-39.1238 2.30411,-84.1411 39.35229,-100.3442 37.03701,-16.216 79.65415,2.4328 94.99346,41.5685 z m -47.51302,79.531 c 26.17838,-11.4603 38.64849,-43.2708 27.81034,-70.9117 -8.19239,-20.8801 -27.36256,-33.5008 -47.53444,-33.5008 -6.539,0 -13.18507,1.3295 -19.59654,4.1243 -26.17839,11.4603 -38.64849,43.2707 -27.81035,70.9116 5.25896,13.3976 15.12705,23.8214 27.81035,29.3766 12.68422,5.5443 26.64758,5.5443 39.32064,0 z"
       id="path14-3" />
  </g>
</svg>
