<?xml version="1.0" encoding="UTF-8" standalone="no"?>
<!-- Generator: Adobe Illustrator 19.0.0, SVG Export Plug-In . SVG Version: 6.00 Build 0)  -->

<svg
   xmlns:dc="http://purl.org/dc/elements/1.1/"
   xmlns:cc="http://creativecommons.org/ns#"
   xmlns:rdf="http://www.w3.org/1999/02/22-rdf-syntax-ns#"
   xmlns:svg="http://www.w3.org/2000/svg"
   xmlns="http://www.w3.org/2000/svg"
   xmlns:sodipodi="http://sodipodi.sourceforge.net/DTD/sodipodi-0.dtd"
   xmlns:inkscape="http://www.inkscape.org/namespaces/inkscape"
   version="1.1"
   id="Capa_1"
   x="0px"
   y="0px"
   viewBox="0 0 512.146 512.146"
   style="enable-background:new 0 0 512.146 512.146;"
   xml:space="preserve"
   sodipodi:docname="graph.svg"
   inkscape:version="0.92.3 (2405546, 2018-03-11)"><metadata
   id="metadata77"><rdf:RDF><cc:Work
       rdf:about=""><dc:format>image/svg+xml</dc:format><dc:type
         rdf:resource="http://purl.org/dc/dcmitype/StillImage" /></cc:Work></rdf:RDF></metadata><defs
   id="defs75" /><sodipodi:namedview
   pagecolor="#ffffff"
   bordercolor="#666666"
   borderopacity="1"
   objecttolerance="10"
   gridtolerance="10"
   guidetolerance="10"
   inkscape:pageopacity="0"
   inkscape:pageshadow="2"
   inkscape:window-width="1399"
   inkscape:window-height="793"
   id="namedview73"
   showgrid="false"
   inkscape:zoom="0.9216122"
   inkscape:cx="297.55595"
   inkscape:cy="210.91944"
   inkscape:window-x="163"
   inkscape:window-y="47"
   inkscape:window-maximized="0"
   inkscape:current-layer="g40" />
<g
   transform="translate(0 -9)"
   id="g40">
	<g
   transform="translate(1)"
   id="g24">
		<path
   style="fill:#795548"
   d="m 224.417,319.887 -24.16,-24.16 -175.632,175.632 h -0.001 l -12.092,12.093 c -3.201,3.201 -4.999,7.542 -4.999,12.068 0,4.526 1.798,8.867 4.999,12.068 l 0.024,0.024 c 3.201,3.201 7.542,4.999 12.068,4.999 4.526,0 8.867,-1.798 12.068,-4.999 l 4.258,-4.258 z"
   id="path2"
   inkscape:connector-curvature="0" />
		<circle
   style="fill:#3f51b5;fill-opacity:1"
   cx="314.495"
   cy="205.58501"
   r="187.905"
   id="circle4" />
		<path
   style="fill:#3f51b5"
   d="m 178.292,72.712 c -68.39,75.389 -68.39,190.376 0,265.765 31.63,35.042 76.626,55.042 123.831,55.042 47.205,0 92.201,-20 123.831,-55.042 68.39,-75.389 68.39,-190.376 0,-265.765 C 394.325,37.67 349.33,17.67 302.124,17.67 c -47.206,0 -92.201,20 -123.832,55.042 z"
   id="path6"
   inkscape:connector-curvature="0" />
		<path
   style="fill:#ffffff"
   d="m 205.828,314.316 c 43.974,43.974 110.107,57.129 167.562,33.33 57.455,-23.799 94.916,-79.864 94.916,-142.052 0,-62.188 -37.462,-118.253 -94.917,-142.052 -57.455,-23.799 -123.588,-10.644 -167.562,33.33 -59.949,60.085 -59.949,157.359 0.001,217.444 z"
   id="path8"
   inkscape:connector-curvature="0" />
		<path
   style="fill:#ffffff"
   d="m 202.408,314.316 c 25.228,28.587 61.519,44.962 99.646,44.962 38.127,0 74.418,-16.375 99.646,-44.962 54.945,-62.069 54.945,-155.375 0,-217.444 C 376.471,68.285 340.18,51.91 302.053,51.91 c -38.127,0 -74.418,16.375 -99.646,44.962 -54.944,62.069 -54.944,155.376 10e-4,217.444 z"
   id="path10"
   inkscape:connector-curvature="0" />
		<path
   style="fill:#607d8b"
   d="m 169.581,386.822 -12.032,12.117 -12.032,12.032 -84.651,84.565 c -3.353,3.328 -8.764,3.328 -12.117,0 L 24.6,471.387 c -1.93,-1.882 -2.795,-4.603 -2.304,-7.253 0.156,-1.846 0.974,-3.574 2.304,-4.864 l 84.651,-84.565 12.032,-12.032 12.032,-12.117 c 3.354,-3.328 8.764,-3.328 12.117,0 l 11.861,11.861 12.288,12.288 c 3.328,3.353 3.328,8.763 0,12.117 z"
   id="path12"
   inkscape:connector-curvature="0" />
		<path
   style="fill:#cfd8dc"
   d="m 157.293,362.417 c -0.156,1.846 -0.974,3.574 -2.304,4.864 l -12.032,12.117 -12.032,12.032 -84.651,84.565 c -3.353,3.328 -8.764,3.328 -12.117,0 L 22.296,464.134 c 0.156,-1.846 0.974,-3.574 2.304,-4.864 l 84.651,-84.565 12.032,-12.032 12.032,-12.117 c 3.354,-3.328 8.764,-3.328 12.117,0 z"
   id="path14"
   inkscape:connector-curvature="0" />
		
			<rect
   x="170.70816"
   y="-393.46667"
   transform="rotate(135)"
   style="fill:#fdd7ad;stroke-width:0.9999904"
   width="17.014835"
   height="51.284508"
   id="rect16" />
		<path
   style="fill:#ff0000"
   d="m 417.126,248.07 h -42.667 v -51.2 c 0,-4.713 3.82,-8.533 8.533,-8.533 h 25.6 c 4.713,0 8.533,3.821 8.533,8.533 v 51.2 z"
   id="path18"
   inkscape:connector-curvature="0" />
		<path
   style="fill:#008000"
   d="m 340.326,248.07 h -42.667 v -85.333 c 0,-4.713 3.82,-8.533 8.533,-8.533 h 25.6 c 4.713,0 8.533,3.821 8.533,8.533 v 85.333 z"
   id="path20"
   inkscape:connector-curvature="0" />
		<path
   style="fill:#ffeb3a"
   d="M 263.526,248.07 H 220.859 V 128.603 c 0,-4.713 3.82,-8.533 8.533,-8.533 h 25.6 c 4.713,0 8.533,3.821 8.533,8.533 V 248.07 Z"
   id="path22"
   inkscape:connector-curvature="0" />
	</g>
	<g
   transform="translate(-0.149,8.533)"
   id="g38">
		<path
   d="M 315.55,359.808 C 392.839,359.724 459.31,305.066 474.326,229.25 489.342,153.434 448.723,77.565 377.301,48.027 305.879,18.489 223.537,43.505 180.616,107.781 c -42.921,64.276 -34.473,149.918 20.18,204.568 30.415,30.455 71.712,47.534 114.754,47.459 z M 212.862,94.907 c 49.001,-49.119 125.88,-56.772 183.603,-18.278 40.39954,26.94143 63.53709,71.234 64.69663,117.37413 0.49721,19.78504 -3.04672,39.90979 -11.00363,59.15187 -26.513,64.116 -94.633,100.566 -162.685,87.051 C 219.421,326.691 170.4,266.976 170.4,197.595 170.333,159.081 185.614,122.127 212.862,94.907 Z"
   id="path26"
   inkscape:connector-curvature="0"
   sodipodi:nodetypes="cssscccsssscc" />
		<path
   d="m 13.533,499.587 -6.013,6.059 c 4.8,4.802 11.312,7.5 18.102,7.5 6.79,0 13.302,-2.698 18.102,-7.5 l 7.734,-7.734 c 5.861,1.676 12.17,0.005 16.432,-4.353 L 176.623,384.825 c 4.28,-4.308 5.938,-10.57 4.352,-16.431 l 15.089,-15.089 c 82.117,63.031 199.055,51.527 267.316,-26.297 68.261,-77.824 64.422,-195.263 -8.776,-268.463 -73.198,-73.2 -190.637,-77.042 -268.462,-8.783 -77.825,68.259 -89.332,185.196 -26.304,267.315 l -15.088,15.088 c -5.861,-1.584 -12.123,0.074 -16.431,4.352 L 19.583,445.253 c -4.279,4.308 -5.937,10.57 -4.351,16.431 L 7.5,469.416 C 2.698,474.217 0,480.73 0,487.52 c 0,6.791 2.698,13.303 7.5,18.104 z m 18.121,-6.009 c -3.374,3.225 -8.688,3.225 -12.062,0 l -0.025,-0.025 v -0.004 c -1.601,-1.599 -2.5,-3.769 -2.5,-6.031 0,-2.263 0.899,-4.432 2.5,-6.031 l 6.059,-6.059 12.092,12.092 z M 55.825,481.491 43.738,469.406 31.659,457.325 31.65,457.32 l 84.575,-84.575 24.174,24.172 z M 188.7,70.745 C 240.006,19.439 317.166,4.091 384.201,31.857 c 67.035,27.766 110.742,93.18 110.742,165.738 0,72.558 -43.708,137.971 -110.742,165.738 C 317.166,391.1 240.006,375.751 188.7,324.445 118.758,254.34 118.758,140.85 188.7,70.745 Z m -12.067,265.767 c 2.041,2.041 4.245,3.808 6.352,5.74 l -12.398,12.398 -6.048,-6.046 -6.046,-6.047 12.399,-12.399 c 1.933,2.107 3.7,4.312 5.741,6.354 z m -36.247,12.072 0.003,0.005 12.083,12.081 12.085,12.087 -12.092,12.092 -24.174,-24.172 z"
   id="path28"
   inkscape:connector-curvature="0" />
		<path
   d="m 221.875,248.603 h 196.267 c 4.713,0 8.533,-3.821 8.533,-8.533 v -51.2 c -0.009,-9.422 -7.645,-17.057 -17.067,-17.067 h -25.6 c -9.422,0.009 -17.057,7.645 -17.067,17.067 v 42.667 h -17.067 v -76.8 c -0.009,-9.422 -7.645,-17.057 -17.067,-17.067 h -25.6 c -9.422,0.009 -17.057,7.645 -17.067,17.067 v 76.8 H 273.073 V 120.603 c -0.009,-9.422 -7.645,-17.057 -17.067,-17.067 h -25.6 c -9.422,0.009 -17.057,7.645 -17.067,17.067 V 240.07 c 0.003,4.713 3.823,8.533 8.536,8.533 z M 383.996,188.87 h 25.612 v 42.667 h -25.6 z m -76.8,-34.133 h 25.612 v 76.8 h -25.6 z m -51.188,-34.134 v 110.933 h -25.6 l -0.012,-110.933 z"
   id="path30"
   inkscape:connector-curvature="0" />
		<path
   d="m 401.075,265.67 h -8.533 c -4.713,0 -8.533,3.82 -8.533,8.533 0,4.713 3.821,8.533 8.533,8.533 h 8.533 c 4.713,0 8.533,-3.82 8.533,-8.533 0,-4.713 -3.82,-8.533 -8.533,-8.533 z"
   id="path32"
   inkscape:connector-curvature="0" />
		<path
   d="m 324.275,265.67 h -8.533 c -4.713,0 -8.533,3.82 -8.533,8.533 0,4.713 3.82,8.533 8.533,8.533 h 8.533 c 4.713,0 8.533,-3.82 8.533,-8.533 0,-4.713 -3.82,-8.533 -8.533,-8.533 z"
   id="path34"
   inkscape:connector-curvature="0" />
		<path
   d="m 247.475,265.67 h -8.533 c -4.713,0 -8.533,3.82 -8.533,8.533 0,4.713 3.821,8.533 8.533,8.533 h 8.533 c 4.713,0 8.533,-3.82 8.533,-8.533 0,-4.713 -3.82,-8.533 -8.533,-8.533 z"
   id="path36"
   inkscape:connector-curvature="0" />
	</g>
</g>
<g
   id="g42">
</g>
<g
   id="g44">
</g>
<g
   id="g46">
</g>
<g
   id="g48">
</g>
<g
   id="g50">
</g>
<g
   id="g52">
</g>
<g
   id="g54">
</g>
<g
   id="g56">
</g>
<g
   id="g58">
</g>
<g
   id="g60">
</g>
<g
   id="g62">
</g>
<g
   id="g64">
</g>
<g
   id="g66">
</g>
<g
   id="g68">
</g>
<g
   id="g70">
</g>
</svg>