<?xml version="1.0" encoding="UTF-8" standalone="no"?>
<!-- Generator: Adobe Illustrator 19.0.0, SVG Export Plug-In . SVG Version: 6.00 Build 0)  -->

<svg
   xmlns:dc="http://purl.org/dc/elements/1.1/"
   xmlns:cc="http://creativecommons.org/ns#"
   xmlns:rdf="http://www.w3.org/1999/02/22-rdf-syntax-ns#"
   xmlns:svg="http://www.w3.org/2000/svg"
   xmlns="http://www.w3.org/2000/svg"
   xmlns:sodipodi="http://sodipodi.sourceforge.net/DTD/sodipodi-0.dtd"
   xmlns:inkscape="http://www.inkscape.org/namespaces/inkscape"
   version="1.1"
   id="Capa_1"
   x="0px"
   y="0px"
   viewBox="0 0 512 512"
   style="enable-background:new 0 0 512 512;"
   xml:space="preserve"
   sodipodi:docname="text-recognition.svg"
   inkscape:version="0.92.3 (2405546, 2018-03-11)"><metadata
   id="metadata85"><rdf:RDF><cc:Work
       rdf:about=""><dc:format>image/svg+xml</dc:format><dc:type
         rdf:resource="http://purl.org/dc/dcmitype/StillImage" /></cc:Work></rdf:RDF></metadata><defs
   id="defs83" /><sodipodi:namedview
   pagecolor="#ffffff"
   bordercolor="#666666"
   borderopacity="1"
   objecttolerance="10"
   gridtolerance="10"
   guidetolerance="10"
   inkscape:pageopacity="0"
   inkscape:pageshadow="2"
   inkscape:window-width="1275"
   inkscape:window-height="584"
   id="namedview81"
   showgrid="false"
   inkscape:zoom="0.921875"
   inkscape:cx="-39.902425"
   inkscape:cy="268.6187"
   inkscape:window-x="123"
   inkscape:window-y="66"
   inkscape:window-maximized="0"
   inkscape:current-layer="Capa_1" />
<rect
   style="fill:#e6e6e6;fill-opacity:1"
   id="rect837"
   width="360.13559"
   height="184.40678"
   x="81.293999"
   y="162.117" /><rect
   style="fill:#ffff00;fill-opacity:1;stroke-width:0.1;stroke-miterlimit:4;stroke-dasharray:none"
   id="rect835"
   width="20.61017"
   height="18.440678"
   x="9.5078316"
   y="335.44131" /><rect
   style="fill:#ffff00;fill-opacity:1;stroke-width:0.1;stroke-miterlimit:4;stroke-dasharray:none"
   id="rect838"
   width="17.355932"
   height="17.355932"
   x="155.82007"
   y="90.352997" /><rect
   style="fill:#ff6600;fill-opacity:1;stroke-width:0.1;stroke-miterlimit:4;stroke-dasharray:none"
   id="rect840"
   width="21.694916"
   height="21.694916"
   x="475.24609"
   y="332.18808" /><rect
   style="fill:#008000;fill-opacity:1;stroke-width:0.1;stroke-miterlimit:4;stroke-dasharray:none"
   id="rect842"
   width="20.61017"
   height="19.525423"
   x="341.80582"
   y="406.58801" /><g
   id="g6"
   style="fill:#000000;fill-opacity:1">
	<g
   id="g4"
   style="fill:#000000;fill-opacity:1">
		<path
   d="M495.937,227.765v-39.529H512v-45.176h-45.176v45.176h14.055v24.471h-29.114v-54.588h-30.118v-96h22.588v13.176h45.177    V30.118h-45.177v16.941h-37.647v111.059h-90.353v-28.235h-22.588v-22.588h30.118v13.176h45.177V75.294h-45.177v16.941h-45.176    v52.706h22.588v13.177h-82.824v-15.059h22.588V90.353h-52.706V75.294h-45.176v45.176h45.176v-15.059h37.647V128h-22.588v30.118    h-90.353V45.176H67.765V30.118H22.588v45.176h45.176V60.235h30.118v97.882H75.294v52.706H30.118v-22.588h15.059v-45.176H0v45.176    h15.059v37.647h60.235v60.235H15.059v37.647H0v45.177h45.176v-45.177H30.118v-22.588h45.176v52.706h22.588v97.882H67.765v-15.059    H22.588v45.176h45.176v-15.059h45.176V353.882h90.353V384h22.588v22.588h-37.647v-15.059h-45.176v45.177h45.176v-15.059h52.706    v-52.706h-22.588v-15.059h82.824v15.059h-22.588v52.706h53.71v15.059h45.177v-45.177h-45.177v15.059h-38.651V384h22.588v-30.118    h90.353v112.941h46.18v15.059h45.176v-45.176h-45.176v15.059h-31.122v-97.882h30.118v-52.706h29.114v22.588h-14.055v45.177H512    v-45.177h-16.063v-37.647h-44.173v-58.353H495.937z M481.882,158.118h15.059v15.059h-15.059V158.118z M459.294,45.176h15.059    v15.059h-15.059V45.176z M338.824,90.353h15.059v15.059h-15.059V90.353z M173.176,105.412h-15.059V90.353h15.059V105.412z     M52.706,60.235H37.647V45.176h15.059V60.235z M15.059,158.118h15.059v15.059H15.059V158.118z M30.118,353.882H15.059v-15.059    h15.059V353.882z M52.706,466.824H37.647v-15.059h15.059V466.824z M173.176,421.647h-15.059v-15.059h15.059V421.647z     M347.357,406.588h15.059v15.059h-15.059V406.588z M467.827,451.765h15.059v15.059h-15.059V451.765z M436.706,338.824H90.353    V173.176h346.353V338.824z M481.882,338.824h15.059v15.059h-15.059V338.824z"
   id="path2"
   style="fill:#000000;fill-opacity:1" />
	</g>
</g>







<g
   id="g50">
</g>
<g
   id="g52">
</g>
<g
   id="g54">
</g>
<g
   id="g56">
</g>
<g
   id="g58">
</g>
<g
   id="g60">
</g>
<g
   id="g62">
</g>
<g
   id="g64">
</g>
<g
   id="g66">
</g>
<g
   id="g68">
</g>
<g
   id="g70">
</g>
<g
   id="g72">
</g>
<g
   id="g74">
</g>
<g
   id="g76">
</g>
<g
   id="g78">
</g>
<path
   inkscape:connector-curvature="0"
   id="path2-3"
   d="m 153.6025,219.98738 c 12.135,0.55584 24.229,-1.3173 34.133,-5.28547 9.904,3.96872 21.998,5.84131 34.133,5.28547 12.135,0.55584 24.229,-1.3173 34.133,-5.28547 9.904,3.96872 21.998,5.84131 34.133,5.28547 12.135,0.55584 24.229,-1.3173 34.133,-5.28547 9.904,3.96872 21.998,5.84131 34.133,5.28547 4.713,0 8.533,-2.14041 8.533,-4.78118 0,-2.64078 -3.82,-4.78118 -8.533,-4.78118 -19.308,0 -25.2,-3.30139 -25.6,-4.78118 0.025,-2.66599 -3.768,-4.85123 -8.525,-4.9123 -2.216,-0.0291 -4.361,0.43817 -5.961,1.29769 -1.6,0.85953 -2.522,2.04124 -2.563,3.28289 l -0.009,0.10255 c -0.492,1.75547 -6.434,5.01035 -25.609,5.01035 -19.308,0 -25.2,-3.30139 -25.6,-4.78118 0.025,-2.66599 -3.768,-4.85123 -8.525,-4.9123 -2.216,-0.0291 -4.361,0.43817 -5.961,1.29769 -1.6,0.85953 -2.522,2.04124 -2.563,3.28289 l -0.009,0.10255 c -0.492,1.75547 -6.434,5.01035 -25.609,5.01035 -19.308,0 -25.2,-3.30139 -25.6,-4.78118 0.025,-2.66599 -3.768,-4.85123 -8.525,-4.9123 -2.216,-0.0291 -4.361,0.43817 -5.961,1.29769 -1.6,0.85953 -2.522,2.04124 -2.563,3.28289 l -0.009,0.10255 c -0.492,1.75547 -6.434,5.01035 -25.609,5.01035 -4.713,0 -8.533,2.1404 -8.533,4.78118 0,2.64077 3.823,4.78118 8.536,4.78118 z"
   style="stroke-width:0.07485429;stroke-miterlimit:4;stroke-dasharray:none;fill:#0000ff" /><path
   inkscape:connector-curvature="0"
   id="path4"
   d="m 148.08914,256.55216 c 11.406,0.50307 22.758,-1.29488 32,-5.06873 9.242,3.77385 20.594,5.57236 32,5.06873 11.406,0.50307 22.758,-1.29488 32,-5.06873 9.242,3.77385 20.594,5.57236 32,5.06873 4.713,0 8.533,-2.13762 8.533,-4.77495 0,-2.63733 -3.82,-4.77495 -8.533,-4.77495 -17.766,0 -23.133,-3.27358 -23.467,-4.77495 0.019,-2.65804 -3.775,-4.83371 -8.525,-4.88687 -2.223,-0.0257 -4.373,0.44543 -5.973,1.30943 -1.6,0.86401 -2.519,2.04921 -2.552,3.29317 l -0.009,0.0884 c -0.409,1.7392 -5.817,4.97081 -23.475,4.97081 -17.766,0 -23.133,-3.27358 -23.467,-4.77495 0.019,-2.65804 -3.775,-4.83371 -8.525,-4.88687 -2.223,-0.0257 -4.373,0.44543 -5.973,1.30943 -1.6,0.86401 -2.519,2.04921 -2.552,3.29317 l -0.008,0.0884 c -0.409,1.7392 -5.817,4.97081 -23.475,4.97081 -4.713,0 -8.533,2.13762 -8.533,4.77495 0,2.63733 3.821,4.77495 8.534,4.77495 z"
   style="stroke-width:0.7480551;fill:#0000ff" /><path
   inkscape:connector-curvature="0"
   id="path6"
   d="m 160.9366,289.27811 c 12.135,0.55583 24.229,-1.3173 34.133,-5.28547 9.904,3.96873 21.998,5.8413 34.133,5.28547 4.713,0 8.533,-2.14041 8.533,-4.78118 0,-2.64077 -3.82,-4.78118 -8.533,-4.78118 -19.308,0 -25.2,-3.30139 -25.6,-4.78118 0.025,-2.66599 -3.768,-4.85122 -8.525,-4.9123 -2.216,-0.0291 -4.361,0.43817 -5.961,1.29769 -1.6,0.85953 -2.522,2.04124 -2.563,3.2829 l -0.009,0.10254 c -0.492,1.75547 -6.434,5.01035 -25.609,5.01035 -4.713,0 -8.533,2.14041 -8.533,4.78118 0,2.64077 3.821,4.78118 8.534,4.78118 z"
   style="stroke-width:0.74854296;fill:#0000ff" /><path
   inkscape:connector-curvature="0"
   id="path8"
   d="m 328.75614,280.7327 c -19.308,0 -25.2,-3.30139 -25.6,-4.78118 0.025,-2.66599 -3.768,-4.85122 -8.525,-4.9123 -2.216,-0.0292 -4.361,0.43817 -5.961,1.2977 -1.6,0.85952 -2.522,2.04123 -2.563,3.28289 l -0.009,0.10254 c -0.492,1.75547 -6.434,5.01035 -25.609,5.01035 -4.713,0 -8.533,2.14041 -8.533,4.78118 0,2.64077 3.821,4.78118 8.533,4.78118 12.135,0.55583 24.229,-1.31731 34.133,-5.28547 9.904,3.96873 21.998,5.8413 34.133,5.28547 4.713,0 8.533,-2.14041 8.533,-4.78118 0,-2.64077 -3.819,-4.78118 -8.532,-4.78118 z"
   style="stroke-width:0.74854296;fill:#0000ff" /><path
   inkscape:connector-curvature="0"
   id="path10"
   d="m 352.88914,242.49293 c 0.025,-2.81542 -3.768,-5.12314 -8.525,-5.18764 -2.216,-0.0308 -4.361,0.46273 -5.961,1.37044 -1.6,0.9077 -2.522,2.15564 -2.563,3.4669 l -0.009,0.10828 c -0.492,1.85387 -6.434,5.29118 -25.609,5.29118 -4.713,0 -8.533,2.26039 -8.533,5.04917 0,2.78879 3.821,5.04917 8.533,5.04917 12.135,0.58698 24.229,-1.39114 34.133,-5.58172 9.904,4.19117 21.998,6.1687 34.133,5.58172 4.713,0 8.533,-2.26038 8.533,-5.04917 0,-2.78878 -3.82,-5.04917 -8.533,-5.04917 -19.307,0 -25.199,-3.48583 -25.599,-5.04916 z"
   style="stroke-width:0.76923501;fill:#0000ff" /></svg>