<?xml version="1.0" encoding="UTF-8" standalone="no"?>
<svg
   xmlns:dc="http://purl.org/dc/elements/1.1/"
   xmlns:cc="http://creativecommons.org/ns#"
   xmlns:rdf="http://www.w3.org/1999/02/22-rdf-syntax-ns#"
   xmlns:svg="http://www.w3.org/2000/svg"
   xmlns="http://www.w3.org/2000/svg"
   xmlns:sodipodi="http://sodipodi.sourceforge.net/DTD/sodipodi-0.dtd"
   xmlns:inkscape="http://www.inkscape.org/namespaces/inkscape"
   viewBox="0 0 480 480"
   version="1.1"
   id="svg62"
   sodipodi:docname="visual.svg"
   inkscape:version="0.92.3 (2405546, 2018-03-11)">
  <metadata
     id="metadata68">
    <rdf:RDF>
      <cc:Work
         rdf:about="">
        <dc:format>image/svg+xml</dc:format>
        <dc:type
           rdf:resource="http://purl.org/dc/dcmitype/StillImage" />
      </cc:Work>
    </rdf:RDF>
  </metadata>
  <defs
     id="defs66" />
  <sodipodi:namedview
     pagecolor="#ffffff"
     bordercolor="#666666"
     borderopacity="1"
     objecttolerance="10"
     gridtolerance="10"
     guidetolerance="10"
     inkscape:pageopacity="0"
     inkscape:pageshadow="2"
     inkscape:window-width="1153"
     inkscape:window-height="608"
     id="namedview64"
     showgrid="false"
     inkscape:zoom="0.69532167"
     inkscape:cx="52.871537"
     inkscape:cy="239.08128"
     inkscape:window-x="67"
     inkscape:window-y="27"
     inkscape:window-maximized="0"
     inkscape:current-layer="svg62" />
  <path
     d="m8 8h464v384h-464zm0 0"
     fill="#5a6470"
     id="path2"
     style="fill:#000000" />
  <path
     d="m120 424h240v48h-240zm0 0"
     fill="#5a6470"
     id="path4"
     style="fill:#000000" />
  <path
     d="m216 392h48v32h-48zm0 0"
     fill="#aabece"
     id="path6"
     style="fill:#000000" />
  <path
     d="m40 40h400v320h-400zm0 0"
     fill="#d0bafa"
     id="path8"
     style="fill:#ffffff" />
  <path
     d="m384 200s-61.710938 64-144 64-144-64-144-64 54.855469-64 144-64 144 64 144 64zm0 0"
     fill="#f4f4e6"
     id="path10" />
  <path
     d="m80 112h-16v-48h48v16h-32zm0 0"
     fill="#9362f5"
     id="path12" />
  <path
     d="m416 336h-48v-16h32v-32h16zm0 0"
     fill="#9362f5"
     id="path14" />
  <path
     d="m285.65625 149.65625-11.3125-11.3125 74.34375-74.34375h67.3125v16h-60.6875zm0 0"
     fill="#fef000"
     id="path16" />
  <path
     d="m360 96h48v16h-48zm0 0"
     fill="#301a12"
     id="path18" />
  <path
     d="m360 128h32v16h-32zm0 0"
     fill="#301a12"
     id="path20" />
  <path
     d="m179.3125 304h-115.3125v-16h108.6875l37.65625-37.65625 11.3125 11.3125zm0 0"
     fill="#fef000"
     id="path22" />
  <g
     fill="#301a12"
     id="g30">
    <path
       d="m64 320h32v16h-32zm0 0"
       id="path24" />
    <path
       d="m112 320h16v16h-16zm0 0"
       id="path26" />
    <path
       d="m144 320h48v16h-48zm0 0"
       id="path28" />
  </g>
  <path
     d="m400 256h16v16h-16zm0 0"
     fill="#9362f5"
     id="path32" />
  <path
     d="m304 200c0 35.347656-28.652344 64-64 64s-64-28.652344-64-64 28.652344-64 64-64 64 28.652344 64 64zm0 0"
     fill="#e1462b"
     id="path34" />
  <path
     d="m272 200c0 17.671875-14.328125 32-32 32s-32-14.328125-32-32 14.328125-32 32-32 32 14.328125 32 32zm0 0"
     fill="#f4f4e6"
     id="path36" />
  <path
     d="m472 0h-464c-4.417969 0-8 3.582031-8 8v384c0 4.417969 3.582031 8 8 8h200v16h-88c-4.417969 0-8 3.582031-8 8v48c0 4.417969 3.582031 8 8 8h240c4.417969 0 8-3.582031 8-8v-48c0-4.417969-3.582031-8-8-8h-88v-16h200c4.417969 0 8-3.582031 8-8v-384c0-4.417969-3.582031-8-8-8zm-120 432v32h-224v-32zm-128-16v-16h32v16zm240-32h-448v-368h448zm0 0"
     id="path38" />
  <path
     d="m40 368h400c4.417969 0 8-3.582031 8-8v-320c0-4.417969-3.582031-8-8-8h-400c-4.417969 0-8 3.582031-8 8v320c0 4.417969 3.582031 8 8 8zm8-320h384v304h-384zm0 0"
     id="path40" />
  <path
     d="m240 160c-22.089844 0-40 17.910156-40 40s17.910156 40 40 40 40-17.910156 40-40c-.027344-22.082031-17.917969-39.972656-40-40zm0 64c-13.253906 0-24-10.746094-24-24s10.746094-24 24-24 24 10.746094 24 24-10.746094 24-24 24zm0 0"
     id="path42" />
  <path
     d="m80 80h32v-16h-48v48h16zm0 0"
     id="path44" />
  <path
     d="m400 320h-32v16h48v-48h-16zm0 0"
     id="path46" />
  <path
     d="m280.320312 132.367188c-13.25-2.867188-26.765624-4.332032-40.320312-4.367188-57.027344.917969-111.21875 25.035156-150.070312 66.792969-2.6875 3.128906-2.550782 7.789062.308593 10.757812 29.238281 28.53125 65.132813 49.316407 104.433594 60.464844l-21.984375 21.984375h-108.6875v16h115.3125l34.183594-34.183594c8.765625 1.40625 17.625 2.136719 26.503906 2.183594 84.710938 0 147.144531-63.734375 149.761719-66.449219 2.859375-2.96875 2.996093-7.628906.308593-10.757812-25.117187-26.828125-56.726562-46.726563-91.773437-57.777344l57.015625-57.015625h60.6875v-16h-67.3125zm-172.945312 67.359374c22.335938-21.394531 49.1875-37.5 78.578125-47.132812-23.496094 26.597656-23.988281 66.386719-1.152344 93.558594-28.507812-10.453125-54.777343-26.203125-77.425781-46.425782zm132.625 56.273438c-30.929688 0-56-25.070312-56-56s25.070312-56 56-56 56 25.070312 56 56c-.035156 30.914062-25.085938 55.964844-56 56zm132.640625-56.265625c-22.636719 20.253906-48.917969 36.019531-77.441406 46.457031 22.867187-27.167968 22.394531-66.984375-1.109375-93.597656 29.378906 9.640625 56.222656 25.75 78.550781 47.140625zm0 0"
     id="path48" />
  <path
     d="m360 96h48v16h-48zm0 0"
     id="path50" />
  <path
     d="m360 128h32v16h-32zm0 0"
     id="path52" />
  <path
     d="m64 320h32v16h-32zm0 0"
     id="path54" />
  <path
     d="m112 320h16v16h-16zm0 0"
     id="path56" />
  <path
     d="m144 320h48v16h-48zm0 0"
     id="path58" />
  <path
     d="m400 256h16v16h-16zm0 0"
     id="path60" />
</svg>
